<svg width="24" height="24" viewBox="0 0 24 24" fill="none" xmlns="http://www.w3.org/2000/svg">
<path d="M23.9997 24V19.3215C23.9997 17.1059 21.4722 15.6455 19.1986 15.6455H10.9681C8.6958 15.6455 6.16699 17.1059 6.16699 19.3215V24H23.9997Z" fill="#9266CC"/>
<path d="M15.0455 0.987793C17.8617 0.987793 22.5544 2.35994 22.5544 8.305C22.5544 14.2501 22.5544 15.6222 21.1463 15.6222C19.7375 15.6222 17.861 14.2501 15.0448 14.2501C12.2293 14.2501 10.3919 15.6222 8.94398 15.6222C7.37539 15.6222 7.53588 10.1343 7.53588 8.305C7.53725 2.35994 12.23 0.987793 15.0455 0.987793Z" fill="#FFAC33"/>
<path d="M12.5654 15.6592C12.5654 16.6483 14.0551 16.9825 15.0839 16.9825C16.1128 16.9825 17.5942 16.6483 17.5942 15.6592V13.5171H12.5654V15.6592Z" fill="#FFDC5D"/>
<path d="M12.5605 14.4284C13.2622 15.2003 14.1319 15.4095 15.077 15.4095C16.0228 15.4095 16.8925 15.201 17.5941 14.4284V12.4661H12.5605V14.4284Z" fill="#F9CA55"/>
<path d="M9.41455 8.10456C9.41455 4.20535 11.9358 1.04468 15.0456 1.04468C18.1553 1.04468 20.6772 4.20535 20.6772 8.10456C20.6772 12.0031 18.1553 14.9793 15.0456 14.9793C11.9358 14.9793 9.41455 12.0038 9.41455 8.10456Z" fill="#FFDC5D"/>
<path d="M15.0452 13.3351C13.9444 13.3351 13.3676 12.8044 13.3058 12.7436C13.122 12.5652 13.122 12.2758 13.3058 12.0973C13.4883 11.9202 13.7805 11.9189 13.9643 12.0926C13.9883 12.114 14.3436 12.4208 15.0452 12.4208C15.7578 12.4208 16.1131 12.1047 16.1268 12.092C16.3141 11.9209 16.609 11.9262 16.7873 12.1053C16.9656 12.2851 16.9656 12.5672 16.7846 12.7436C16.7235 12.8044 16.1474 13.3351 15.0452 13.3351Z" fill="#DF1F32"/>
<path d="M8.03658 10.2987C8.02218 9.63037 8.0064 10.149 8.0064 9.98794C8.0064 7.70082 9.4145 10.3181 9.4145 8.68932C9.4145 7.0592 10.3528 6.89612 11.291 5.9818C11.7609 5.52398 12.6991 4.62771 12.6991 4.62771C12.6991 4.62771 15.0455 6.00921 16.9227 6.00921C18.7993 6.00921 20.6772 6.9282 20.6772 8.75749C20.6772 10.5868 22.0853 7.69881 22.0853 9.98527C22.0853 10.1483 22.0702 9.63037 22.0579 10.2987H22.5503C22.5551 8.96201 22.5551 9.01281 22.5551 8.15865C22.5551 2.2136 17.8617 0 15.0462 0C12.2307 0 7.53795 2.17684 7.53795 8.12189C7.53795 8.65189 7.52423 8.96201 7.54344 10.2987H8.03658Z" fill="#FFAC33"/>
<path d="M12.7575 9.55424C12.4386 9.55424 12.1772 9.2996 12.1772 8.98882V8.42406C12.1772 8.11328 12.4386 7.85864 12.7575 7.85864C13.0764 7.85864 13.3384 8.11328 13.3384 8.42406V8.98882C13.3384 9.2996 13.0764 9.55424 12.7575 9.55424ZM17.3974 9.55424C17.0785 9.55424 16.8172 9.2996 16.8172 8.98882V8.42406C16.8172 8.11328 17.0785 7.85864 17.3974 7.85864C17.7163 7.85864 17.9777 8.11328 17.9777 8.42406V8.98882C17.9777 9.2996 17.7163 9.55424 17.3974 9.55424Z" fill="#662113"/>
<path d="M15.6579 11.3012H14.4981C14.3383 11.3012 14.208 11.1742 14.208 11.0185V10.9162C14.208 10.7605 14.3376 10.6328 14.4981 10.6328H15.6579C15.8171 10.6328 15.9481 10.7598 15.9481 10.9162V11.0185C15.9481 11.1742 15.8171 11.3012 15.6579 11.3012Z" fill="#C1694F"/>
<path d="M10.5872 8.91914C10.5872 9.88693 10.0837 10.6716 9.46301 10.6716C8.8423 10.6716 8.33887 9.88693 8.33887 8.91914C8.33887 7.95134 8.8423 7.16602 9.46301 7.16602C10.0837 7.16535 10.5872 7.95068 10.5872 8.91914ZM21.8279 8.91914C21.8279 9.88693 21.3252 10.6716 20.7038 10.6716C20.0831 10.6716 19.5796 9.88693 19.5796 8.91914C19.5796 7.95134 20.0824 7.16602 20.7038 7.16602C21.3252 7.16535 21.8279 7.95068 21.8279 8.91914Z" fill="#FFDC5D"/>
<path d="M22.6289 23.3317C22.6289 23.7013 22.3223 24.0001 21.943 24.0001H15.0843C14.705 24.0001 14.3984 23.7013 14.3984 23.3317C14.3984 22.9621 14.705 22.6633 15.0843 22.6633H21.943C22.3223 22.6633 22.6289 22.9621 22.6289 23.3317Z" fill="#E1E8ED"/>
<path d="M13.8767 14.6428H2.57282C1.52756 14.6428 0.187363 15.1581 0.873235 17.0028L2.98023 22.6672C2.98092 22.6672 3.25252 23.9999 4.79573 23.9999H18.5132L15.7697 16.4875C15.4693 15.6039 14.9226 14.6428 13.8767 14.6428Z" fill="#E1E8ED"/>
<path d="M13.1909 14.6428H1.88703C0.841765 14.6428 -0.498428 15.1581 0.187444 17.0028L2.29444 22.6672C2.29513 22.6672 2.56673 23.9999 4.10994 23.9999H17.8274L15.0839 16.4875C14.7835 15.6039 14.2368 14.6428 13.1909 14.6428Z" fill="#99AAB5"/>
<path d="M9.60986 19.5107C9.96926 20.5614 9.67845 21.6027 8.95897 21.8359C8.24086 22.0699 7.36638 21.4075 7.00698 20.3569C6.64758 19.3062 6.93908 18.2649 7.65787 18.0316C8.37666 17.7984 9.25115 18.4601 9.60986 19.5107ZM13.0262 16.4811H2.05225C1.76829 16.4811 1.53784 16.2565 1.53784 15.9798C1.53784 15.7031 1.76829 15.4785 2.05225 15.4785H13.0262C13.3101 15.4785 13.5406 15.7031 13.5406 15.9798C13.5406 16.2565 13.3101 16.4811 13.0262 16.4811Z" fill="#E1E8ED"/>
</svg>
